<svg xmlns:xlink="http://www.w3.org/1999/xlink" xmlns="http://www.w3.org/2000/svg" viewBox="0 0 119.26 184.57">
  <defs>
    <linearGradient id="a" x1="121.12" y1="-0.25" x2="213.62" y2="-0.25"
                    gradientTransform="translate(-100.81 145.97) rotate(-18.42)" gradientUnits="userSpaceOnUse">
      <stop offset="0" stop-color="#262262"/>
      <stop offset="0.5" stop-color="#662d91"/>
      <stop offset="0.67" stop-color="#642c8e"/>
      <stop offset="0.8" stop-color="#5c2a85"/>
      <stop offset="0.91" stop-color="#4e2675"/>
      <stop offset="1" stop-color="#3e2262"/>
    </linearGradient>
    <linearGradient id="b" x1="121.12" y1="1.37" x2="197.87" y2="1.37"
                    gradientTransform="translate(-100.81 145.97) rotate(-18.42)" gradientUnits="userSpaceOnUse">
      <stop offset="0" stop-color="#92278f" stop-opacity="0"/>
      <stop offset="0.05" stop-color="#942a8f" stop-opacity="0.16"/>
      <stop offset="0.13" stop-color="#982d90" stop-opacity="0.38"/>
      <stop offset="0.22" stop-color="#9b3090" stop-opacity="0.58"/>
      <stop offset="0.32" stop-color="#9d3390" stop-opacity="0.73"/>
      <stop offset="0.43" stop-color="#9f3591" stop-opacity="0.85"/>
      <stop offset="0.55" stop-color="#a03691" stop-opacity="0.94"/>
      <stop offset="0.71" stop-color="#a13791" stop-opacity="0.99"/>
      <stop offset="1" stop-color="#a13791"/>
    </linearGradient>
    <linearGradient id="c" x1="112.81" y1="-30.8" x2="236.08" y2="-30.8"
                    gradientTransform="translate(-100.81 145.97) rotate(-18.42)" gradientUnits="userSpaceOnUse">
      <stop offset="0" stop-color="#1c75bc"/>
      <stop offset="0.5" stop-color="#00aeef"/>
      <stop offset="1" stop-color="#4fd5df"/>
    </linearGradient>
    <linearGradient id="d" x1="157.94" y1="95.69" x2="157.94" y2="46.48"
                    gradientTransform="translate(-100.81 145.97) rotate(-18.42)" gradientUnits="userSpaceOnUse">
      <stop offset="0" stop-color="#da1c5c"/>
      <stop offset="0.5" stop-color="#9e1f63"/>
      <stop offset="1" stop-color="#9e1f63"/>
    </linearGradient>
    <linearGradient id="e" x1="158.19" y1="95.69" x2="158.19" y2="46.48"
                    gradientTransform="translate(-100.81 145.97) rotate(-18.42)" gradientUnits="userSpaceOnUse">
      <stop offset="0" stop-color="#da1c5c"/>
      <stop offset="1" stop-color="#351840"/>
    </linearGradient>
    <linearGradient id="f" x1="138.12" y1="40.94" x2="224.92" y2="40.94"
                    gradientTransform="translate(-100.81 145.97) rotate(-18.42)" gradientUnits="userSpaceOnUse">
      <stop offset="0" stop-color="#ee2a7b"/>
      <stop offset="0.5" stop-color="#da1c5c"/>
      <stop offset="1" stop-color="#9e1f63"/>
    </linearGradient>
    <linearGradient id="g" x1="138.12" y1="40.94" x2="225.04" y2="40.94"
                    gradientTransform="translate(-100.81 145.97) rotate(-18.42)" gradientUnits="userSpaceOnUse">
      <stop offset="0" stop-color="#ee2a7b" stop-opacity="0"/>
      <stop offset="0.02" stop-color="#ee2b7b" stop-opacity="0.09"/>
      <stop offset="0.07" stop-color="#ef2d7a" stop-opacity="0.3"/>
      <stop offset="0.12" stop-color="#f02f79" stop-opacity="0.49"/>
      <stop offset="0.18" stop-color="#f13078" stop-opacity="0.65"/>
      <stop offset="0.23" stop-color="#f13278" stop-opacity="0.77"/>
      <stop offset="0.29" stop-color="#f13378" stop-opacity="0.87"/>
      <stop offset="0.35" stop-color="#f23377" stop-opacity="0.94"/>
      <stop offset="0.42" stop-color="#f23477" stop-opacity="0.99"/>
      <stop offset="0.5" stop-color="#f23477"/>
      <stop offset="0.56" stop-color="#f13477" stop-opacity="0.98"/>
      <stop offset="0.63" stop-color="#ec3376" stop-opacity="0.93"/>
      <stop offset="0.69" stop-color="#e53174" stop-opacity="0.84"/>
      <stop offset="0.76" stop-color="#db2e71" stop-opacity="0.72"/>
      <stop offset="0.82" stop-color="#ce2b6e" stop-opacity="0.57"/>
      <stop offset="0.89" stop-color="#bd276a" stop-opacity="0.37"/>
      <stop offset="0.96" stop-color="#ab2266" stop-opacity="0.15"/>
      <stop offset="1" stop-color="#9e1f63" stop-opacity="0"/>
    </linearGradient>
    <linearGradient id="h" x1="112.81" y1="-30.8" x2="234.56" y2="-30.8"
                    gradientTransform="translate(-100.81 145.97) rotate(-18.42)" gradientUnits="userSpaceOnUse">
      <stop offset="0" stop-color="#d9e8bc"/>
      <stop offset="1" stop-color="#4fd5df"/>
    </linearGradient>
    <linearGradient id="i" x1="145.54" y1="22.17" x2="210.19" y2="-89.81"
                    gradientTransform="translate(-100.81 145.97) rotate(-18.42)" gradientUnits="userSpaceOnUse">
      <stop offset="0" stop-color="#1c75bc" stop-opacity="0"/>
      <stop offset="0.06" stop-color="#458ec5" stop-opacity="0.18"/>
      <stop offset="0.15" stop-color="#7db0d2" stop-opacity="0.43"/>
      <stop offset="0.24" stop-color="#abccdc" stop-opacity="0.63"/>
      <stop offset="0.32" stop-color="#d0e2e4" stop-opacity="0.79"/>
      <stop offset="0.39" stop-color="#eaf2ea" stop-opacity="0.91"/>
      <stop offset="0.45" stop-color="#f9fcee" stop-opacity="0.98"/>
      <stop offset="0.5" stop-color="#ffffef"/>
      <stop offset="0.59" stop-color="#fdffef" stop-opacity="0.99"/>
      <stop offset="0.66" stop-color="#f6fdee" stop-opacity="0.95"/>
      <stop offset="0.72" stop-color="#ecfaed" stop-opacity="0.89"/>
      <stop offset="0.77" stop-color="#dcf7ec" stop-opacity="0.8"/>
      <stop offset="0.82" stop-color="#c8f2ea" stop-opacity="0.69"/>
      <stop offset="0.87" stop-color="#afece8" stop-opacity="0.55"/>
      <stop offset="0.92" stop-color="#92e5e5" stop-opacity="0.38"/>
      <stop offset="0.96" stop-color="#71dde2" stop-opacity="0.19"/>
      <stop offset="1" stop-color="#4fd5df" stop-opacity="0"/>
    </linearGradient>
    <linearGradient id="j" x1="138.12" y1="40.94" x2="220.49" y2="40.94"
                    gradientTransform="translate(-100.81 145.97) rotate(-18.42)" gradientUnits="userSpaceOnUse">
      <stop offset="0" stop-color="#ee2a7b" stop-opacity="0"/>
      <stop offset="0.25" stop-color="#d32673" stop-opacity="0.34"/>
      <stop offset="0.49" stop-color="#bc236c" stop-opacity="0.62"/>
      <stop offset="0.7" stop-color="#ac2167" stop-opacity="0.83"/>
      <stop offset="0.88" stop-color="#a21f64" stop-opacity="0.95"/>
      <stop offset="1" stop-color="#9e1f63"/>
    </linearGradient>
    <linearGradient id="k" x1="141.43" y1="40.94" x2="225.04" y2="40.94"
                    gradientTransform="translate(-100.81 145.97) rotate(-18.42)" gradientUnits="userSpaceOnUse">
      <stop offset="0" stop-color="#ee2a7b" stop-opacity="0"/>
      <stop offset="0.03" stop-color="#f0478d" stop-opacity="0.14"/>
      <stop offset="0.08" stop-color="#f472a8" stop-opacity="0.34"/>
      <stop offset="0.13" stop-color="#f798bf" stop-opacity="0.51"/>
      <stop offset="0.18" stop-color="#f9b8d3" stop-opacity="0.66"/>
      <stop offset="0.24" stop-color="#fbd1e3" stop-opacity="0.79"/>
      <stop offset="0.3" stop-color="#fde6ef" stop-opacity="0.88"/>
      <stop offset="0.36" stop-color="#fef4f8" stop-opacity="0.95"/>
      <stop offset="0.42" stop-color="#fffcfd" stop-opacity="0.99"/>
      <stop offset="0.5" stop-color="#fff"/>
      <stop offset="0.56" stop-color="#fdfbfc" stop-opacity="0.98"/>
      <stop offset="0.62" stop-color="#f9f0f5" stop-opacity="0.93"/>
      <stop offset="0.69" stop-color="#f1dee8" stop-opacity="0.85"/>
      <stop offset="0.75" stop-color="#e5c4d6" stop-opacity="0.74"/>
      <stop offset="0.82" stop-color="#d7a3bf" stop-opacity="0.59"/>
      <stop offset="0.88" stop-color="#c57aa2" stop-opacity="0.41"/>
      <stop offset="0.95" stop-color="#b14b82" stop-opacity="0.2"/>
      <stop offset="1" stop-color="#9e1f63" stop-opacity="0"/>
    </linearGradient>
  </defs>
  <title>Tavola disegno 1</title>
  <g style="isolation:isolate">
    <path
      d="M19.68,87.53s10,5,57.42-6.16c10.61-2.51,17.64-4,24.28-3,0,0,5.87,6.15-7.24,11.79S62.67,109.3,62.67,109.3s-26.49,6.8-29,6.6-13.34,1.15-19.36-8.54S19.68,87.53,19.68,87.53Z"
      fill="url(#a)"/>
   
    <path
      d="M22.55,87.53s10,5.07,57.42-6.16c10.54-2.5,17.64-4,24.27-3,0,0,5.88,6.15-7.24,11.79S65.54,109.3,65.54,109.3s-26.49,6.8-29,6.6-13.34,1.15-19.37-8.54S22.55,87.53,22.55,87.53Z"
      fill="#232428"/>
    <path
      d="M49.26,102.33c-28.14,7.09-27.3.45-27.3.45s-3.2-5.06-6.27-10.51c-2.55,3.85-4.8,9.54-1.35,15.09,6,9.69,16.89,8.35,19.36,8.54s29-6.6,29-6.6S77.34,98.5,89.82,92.18C79.65,94.32,65.28,98.3,49.26,102.33Z"
      opacity="0.43" fill="url(#b)"/>
    <path
      d="M97.79,0S120.6,25.75,75.35,59.33c-48.52,36-61.08,57-41.14,56.56,0,0-28,6.87-32.3-19.9C-.65,80.22,9.71,70.75,22.65,60.05,22.65,60.05,67.48,28.05,97.79,0Z"
      fill="url(#c)"/>
    <path
      d="M74.07,136.7S58.73,162.93,87,183.76a.31.31,0,0,1-.28.54,114.36,114.36,0,0,1-17.46-7.85C51.58,166.66,65.2,146.38,74.07,136.7Z"
      fill="url(#d)"/>
    <path
      d="M74.07,136.7S58.73,162.93,87,183.76a.31.31,0,0,1-.28.54c-4.48-1.46-15-5.45-19.46-9.63C52.53,160.85,65.2,146.38,74.07,136.7Z"
      fill="url(#e)"/>
    <path
      d="M117.89,92.06c-1-12.3-17.7-13.85-17.7-13.85,10.06,5.51-21,12.13-43.67,37.53-16.09,18-9.68,36.46-9.68,36.46l0,0c5,16.87,22.36,24.23,22.36,24.23C41.43,136.4,119.56,114.73,117.89,92.06Z"
      fill="url(#f)"/>
    <path
      d="M117.89,92.06c-.47-12.47-17.7-13.85-17.7-13.85,10.06,5.51-21,12.13-43.67,37.53-16.09,18-9.68,36.46-9.68,36.46l0,0c5,16.87,22.36,24.23,22.36,24.23C41.43,136.4,117.54,115.62,117.89,92.06Z"
      fill="url(#g)"/>
    <path
      d="M49.6,56.09C101.86,18.79,97.79,0,97.79,0,71,25.56,22.65,60.05,22.65,60.05,9.17,71.23-.65,80.22,1.91,96c4.34,26.77,32.3,19.9,32.3,19.9C1.5,121.54-4.38,94.61,49.6,56.09Z"
      fill="url(#h)" style="mix-blend-mode:color-burn"/>
    <path
      d="M97.79,0h0s4.07,18.79-48.19,56.09C8.31,85.55,2.15,108.5,16.09,114.93a31.48,31.48,0,0,0,12.8,1.67,49.1,49.1,0,0,0,5.32-.71c-19.94.41-7.38-20.56,41.14-56.56C120.6,25.75,97.79,0,97.79,0Z"
      opacity="0.25" fill="url(#i)"/>
    <path
      d="M105.66,95c9.28-6.84,4.52-12.57,4-13.1a24.4,24.4,0,0,0-9.51-3.67c10.06,5.51-21,12.13-43.67,37.53-16.09,18-9.68,36.46-9.68,36.46l0,0c5,16.87,22.36,24.23,22.36,24.23C17.86,146.4,95.61,102.4,105.66,95Z"
      fill="url(#j)"/>
    <path
      d="M100.19,78.21a24.4,24.4,0,0,1,9.51,3.67c.48.53,5.24,6.26-4,13.1-10,7.42-89,49.93-36.42,81.47-27.81-40,48.3-60.83,48.65-84.39C117.42,79.59,100.19,78.21,100.19,78.21Z"
      opacity="0.17" fill="url(#k)" style="mix-blend-mode:soft-light"/>
  </g>
</svg>
